<svg width="22" height="22" viewBox="0 0 22 22" fill="none" xmlns="http://www.w3.org/2000/svg">
<path d="M20.1666 20.8542H1.83331C1.45748 20.8542 1.14581 20.5425 1.14581 20.1667C1.14581 19.7909 1.45748 19.4792 1.83331 19.4792H20.1666C20.5425 19.4792 20.8541 19.7909 20.8541 20.1667C20.8541 20.5425 20.5425 20.8542 20.1666 20.8542Z" fill="#8E8EA4"/>
<path d="M19.25 20.8542H2.75C2.37417 20.8542 2.0625 20.5425 2.0625 20.1667V13.75C2.0625 8.81833 6.06833 4.8125 11 4.8125C15.9317 4.8125 19.9375 8.81833 19.9375 13.75V20.1667C19.9375 20.5425 19.6258 20.8542 19.25 20.8542ZM3.4375 19.4792H18.5625V13.75C18.5625 9.57917 15.1708 6.1875 11 6.1875C6.82917 6.1875 3.4375 9.57917 3.4375 13.75V19.4792Z" fill="#8E8EA4"/>
<path d="M11 3.43748C10.6242 3.43748 10.3125 3.12581 10.3125 2.74998V1.83331C10.3125 1.45748 10.6242 1.14581 11 1.14581C11.3758 1.14581 11.6875 1.45748 11.6875 1.83331V2.74998C11.6875 3.12581 11.3758 3.43748 11 3.43748Z" fill="#8E8EA4"/>
<path d="M4.58326 5.27082C4.40909 5.27082 4.23493 5.20665 4.09743 5.06915L3.18076 4.15248C2.91493 3.88665 2.91493 3.44665 3.18076 3.18082C3.44659 2.91499 3.88659 2.91499 4.15242 3.18082L5.06909 4.09749C5.33492 4.36332 5.33492 4.80332 5.06909 5.06915C4.93159 5.20665 4.75742 5.27082 4.58326 5.27082Z" fill="#8E8EA4"/>
<path d="M17.4166 5.27082C17.2424 5.27082 17.0683 5.20665 16.9308 5.06915C16.6649 4.80332 16.6649 4.36332 16.9308 4.09749L17.8474 3.18082C18.1133 2.91499 18.5533 2.91499 18.8191 3.18082C19.0849 3.44665 19.0849 3.88665 18.8191 4.15248L17.9024 5.06915C17.7649 5.20665 17.5908 5.27082 17.4166 5.27082Z" fill="#8E8EA4"/>
</svg>
