<svg width="30" height="30" viewBox="0 0 30 30" fill="none" xmlns="http://www.w3.org/2000/svg">
<path d="M20.9662 10.3597L10.3596 20.9663C9.99719 21.3286 9.39615 21.3286 9.03376 20.9663C8.67137 20.6039 8.67137 20.0028 9.03376 19.6404L19.6404 9.03383C20.0028 8.67144 20.6038 8.67144 20.9662 9.03383C21.3286 9.39622 21.3286 9.99726 20.9662 10.3597Z" fill="#66686B"/>
<path d="M20.9662 20.9662C20.6038 21.3286 20.0028 21.3286 19.6404 20.9662L9.03376 10.3596C8.67137 9.99718 8.67137 9.39613 9.03376 9.03374C9.39615 8.67135 9.9972 8.67135 10.3596 9.03374L20.9662 19.6403C21.3286 20.0027 21.3286 20.6038 20.9662 20.9662Z" fill="#66686B"/>
</svg>
