<svg width="25" height="24" viewBox="0 0 25 24" fill="none" xmlns="http://www.w3.org/2000/svg">
<path d="M16.7498 20.75C16.7398 20.75 16.7198 20.75 16.7098 20.75C16.2998 20.75 15.9598 20.41 15.9698 19.99C15.9698 19.58 16.3098 19.25 16.7198 19.25C16.7298 19.25 16.7498 19.25 16.7598 19.25C17.8998 19.25 18.9898 18.83 19.8298 18.05C21.3798 16.69 21.4898 14.75 21.0698 13.38C20.6498 12.01 19.4898 10.46 17.4598 10.2C17.1298 10.16 16.8698 9.91 16.8098 9.58C16.4098 7.19 15.1198 5.54 13.1798 4.94C11.1598 4.32 8.82982 4.93 7.36982 6.46C5.94982 7.95 5.61982 10.02 6.43982 12.31C6.57982 12.7 6.37982 13.13 5.98982 13.27C5.59982 13.41 5.16982 13.21 5.02982 12.82C4.01982 10.01 4.47982 7.32 6.28982 5.43C8.13982 3.5 11.0798 2.73 13.6298 3.52C15.9598 4.24 17.6098 6.16 18.1998 8.82C20.2398 9.28 21.8698 10.82 22.5198 12.95C23.2298 15.27 22.5798 17.65 20.8498 19.17C19.7098 20.19 18.2598 20.75 16.7498 20.75Z" fill="#84898F"/>
<path d="M5.66993 20.75C5.64993 20.75 5.62993 20.75 5.61993 20.75C2.73993 20.55 1.42993 18.29 1.42993 16.28C1.42993 14.27 2.73993 12.02 5.61993 11.81C6.35993 11.8 7.08993 11.97 7.72993 12.29C8.09993 12.48 8.23993 12.93 8.05993 13.3C7.86993 13.67 7.41993 13.81 7.04993 13.63C6.62993 13.41 6.14993 13.32 5.68993 13.31C3.79993 13.45 2.93993 14.9 2.93993 16.28C2.93993 17.66 3.79993 19.11 5.73993 19.25C6.14993 19.28 6.45993 19.64 6.42993 20.05C6.38993 20.45 6.05993 20.75 5.66993 20.75Z" fill="#84898F"/>
<path d="M15.9199 10.64C15.6499 10.64 15.3799 10.49 15.2499 10.22C15.0599 9.85 15.2099 9.4 15.5899 9.21C16.1999 8.9 16.8899 8.73 17.5699 8.72C17.9499 8.74 18.3299 9.04 18.3299 9.46C18.3399 9.87 18.0099 10.22 17.5899 10.22C17.1299 10.23 16.6699 10.34 16.2499 10.55C16.1499 10.62 16.0299 10.64 15.9199 10.64Z" fill="#84898F"/>
<path d="M8.06977 22.75C7.87977 22.75 7.68977 22.68 7.53977 22.53C7.24977 22.24 7.24977 21.76 7.53977 21.47L9.53977 19.47C9.82977 19.18 10.3098 19.18 10.5998 19.47C10.8898 19.76 10.8898 20.24 10.5998 20.53L8.59977 22.53C8.45977 22.68 8.26977 22.75 8.06977 22.75Z" fill="#84898F"/>
<path d="M12.0698 22.75C11.8798 22.75 11.6898 22.68 11.5398 22.53C11.2498 22.24 11.2498 21.76 11.5398 21.47L13.5398 19.47C13.8298 19.18 14.3098 19.18 14.5998 19.47C14.8898 19.76 14.8898 20.24 14.5998 20.53L12.5998 22.53C12.4598 22.68 12.2698 22.75 12.0698 22.75Z" fill="#84898F"/>
<path d="M12.0698 18.75C11.8798 18.75 11.6898 18.68 11.5398 18.53C11.2498 18.24 11.2498 17.76 11.5398 17.47L13.5398 15.47C13.8298 15.18 14.3098 15.18 14.5998 15.47C14.8898 15.76 14.8898 16.24 14.5998 16.53L12.5998 18.53C12.4598 18.68 12.2698 18.75 12.0698 18.75Z" fill="#84898F"/>
<path d="M8.06977 18.75C7.87977 18.75 7.68977 18.68 7.53977 18.53C7.24977 18.24 7.24977 17.76 7.53977 17.47L9.53977 15.47C9.82977 15.18 10.3098 15.18 10.5998 15.47C10.8898 15.76 10.8898 16.24 10.5998 16.53L8.59977 18.53C8.45977 18.68 8.26977 18.75 8.06977 18.75Z" fill="#84898F"/>
</svg>
