<svg width="25" height="25" viewBox="0 0 25 25" fill="none" xmlns="http://www.w3.org/2000/svg">
<path d="M21.11 11.5161C20.34 10.5961 19.35 9.99606 18.2 9.73606C17.94 8.57606 17.49 7.57606 16.83 6.74606C16.81 6.71606 16.79 6.68606 16.77 6.66606C14.57 4.00606 10.97 4.01606 8.54001 5.39606C6.46001 6.58606 4.69001 9.09606 5.62001 12.6761C3.49001 13.1961 2.51001 15.0561 2.51001 16.7361C2.51001 18.6161 3.74001 20.7261 6.48001 20.9261H16.82C16.83 20.9261 16.85 20.9261 16.86 20.9261C18.28 20.9261 19.64 20.3961 20.69 19.4361C23.2 17.2161 22.87 13.5961 21.11 11.5161Z" fill="#226CD7"/>
<path d="M22.26 9.42606C22.26 9.76606 22.22 10.0961 22.12 10.4161C21.39 9.56606 20.46 8.93606 19.43 8.54606C19.11 7.54606 18.65 6.65606 18.05 5.87606C18.02 5.83606 17.99 5.79606 17.95 5.74606C18.14 5.70606 18.34 5.69606 18.53 5.69606C20.59 5.69606 22.26 7.36606 22.26 9.42606Z" fill="#226CD7"/>
</svg>
