<svg width="25" height="25" viewBox="0 0 25 25" fill="none" xmlns="http://www.w3.org/2000/svg">
<path d="M17.09 8.09607L6.81002 18.3761C6.33002 18.8561 5.51002 18.7461 5.22002 18.1361C4.70002 17.0661 4.40002 15.8561 4.40002 14.5861C4.38002 9.06607 9.98002 4.34607 11.88 2.89607C12.25 2.61607 12.75 2.61607 13.11 2.89607C13.98 3.55607 15.61 4.92607 17.14 6.72607C17.48 7.12607 17.46 7.72607 17.09 8.09607Z" fill="#226CD7"/>
<path d="M20.6 14.5961C20.6 19.0561 16.97 22.6861 12.5 22.6861C10.71 22.6861 9.04003 22.1061 7.69003 21.1061C7.20003 20.7461 7.16003 20.0261 7.59003 19.5961L17.66 9.52607C18.13 9.05607 18.92 9.15607 19.24 9.73607C20.06 11.2461 20.61 12.8861 20.6 14.5961Z" fill="#226CD7"/>
</svg>
