<svg width="19" height="18" viewBox="0 0 19 18" fill="none" xmlns="http://www.w3.org/2000/svg">
<circle cx="9.5" cy="9" r="9" transform="rotate(-90 9.5 9)" fill="#226CD7"/>
<path d="M13.4511 7.71283C13.4158 7.74816 13.3675 7.77047 13.3117 7.77047C13.2039 7.77047 13.1146 7.68123 13.1146 7.5734L13.1146 5.51346L11.0547 5.51346C10.9468 5.51346 10.8576 5.42422 10.8576 5.31639C10.8576 5.20856 10.9468 5.11932 11.0547 5.11932L13.3117 5.11932C13.4195 5.11932 13.5088 5.20856 13.5088 5.31639L13.5088 7.5734C13.5088 7.62917 13.4864 7.67751 13.4511 7.71283Z" fill="white"/>
<path d="M13.4195 5.48743L10.2906 8.61638C10.2143 8.6926 10.0879 8.6926 10.0117 8.61638C9.93546 8.54015 9.93546 8.41373 10.0117 8.3375L13.1406 5.20855C13.2169 5.13233 13.3433 5.13233 13.4195 5.20855C13.4957 5.28478 13.4957 5.4112 13.4195 5.48743Z" fill="white"/>
<path d="M8.04983 5.16041C8.08587 5.195 8.10918 5.24286 8.11034 5.29863C8.11257 5.40643 8.0252 5.4975 7.91739 5.49974L5.85789 5.5424L5.90056 7.6019C5.90279 7.70971 5.81542 7.80078 5.70761 7.80301C5.59981 7.80524 5.50874 7.71787 5.5065 7.61006L5.45976 5.35354C5.45752 5.24573 5.54489 5.15466 5.6527 5.15243L7.90923 5.10568C7.96499 5.10453 8.01378 5.12583 8.04983 5.16041Z" fill="white"/>
<path d="M5.82553 5.23811L9.01862 8.30158C9.09641 8.37621 9.09903 8.5026 9.0244 8.58039C8.94977 8.65818 8.82337 8.6608 8.74558 8.58617L5.5525 5.5227C5.47471 5.44807 5.47209 5.32167 5.54672 5.24389C5.62135 5.1661 5.74775 5.16348 5.82553 5.23811Z" fill="white"/>
<path d="M5.55292 10.2787C5.58842 10.2435 5.63687 10.2214 5.69264 10.2217C5.80047 10.2223 5.88926 10.3119 5.88872 10.4198L5.87846 12.4797L7.93837 12.49C8.0462 12.4905 8.135 12.5802 8.13446 12.688C8.13392 12.7958 8.04424 12.8846 7.93641 12.8841L5.67943 12.8728C5.5716 12.8723 5.48281 12.7826 5.48334 12.6748L5.49459 10.4178C5.49487 10.362 5.51742 10.3138 5.55292 10.2787Z" fill="white"/>
<path d="M5.57345 12.5042L8.71795 9.39088C8.79455 9.31503 8.92097 9.31566 8.99682 9.39227C9.07266 9.46887 9.07203 9.59529 8.99543 9.67113L5.85093 12.7845C5.77433 12.8603 5.64791 12.8597 5.57206 12.7831C5.49622 12.7065 5.49685 12.58 5.57345 12.5042Z" fill="white"/>
<path d="M10.9418 12.8352C10.9059 12.8005 10.8829 12.7525 10.882 12.6967C10.8803 12.5889 10.9681 12.4983 11.0759 12.4966L13.1356 12.4642L13.1032 10.4045C13.1015 10.2967 13.1894 10.206 13.2972 10.2043C13.405 10.2026 13.4956 10.2905 13.4973 10.3983L13.5328 12.655C13.5345 12.7628 13.4467 12.8535 13.3389 12.8552L11.0821 12.8907C11.0264 12.8915 10.9777 12.87 10.9418 12.8352Z" fill="white"/>
<path d="M13.1665 12.7686L9.98868 9.68928C9.91127 9.61427 9.90928 9.48786 9.9843 9.41044C10.0593 9.33303 10.1857 9.33104 10.2631 9.40606L13.4409 12.4854C13.5183 12.5604 13.5203 12.6868 13.4453 12.7642C13.3703 12.8416 13.2439 12.8436 13.1665 12.7686Z" fill="white"/>
</svg>
