<svg width="25" height="24" viewBox="0 0 25 24" fill="none" xmlns="http://www.w3.org/2000/svg">
<path d="M12.0999 20.25C7.54985 20.25 3.84985 16.55 3.84985 12C3.84985 7.45 7.54985 3.75 12.0999 3.75C16.6499 3.75 20.3499 7.45 20.3499 12C20.3499 16.55 16.6499 20.25 12.0999 20.25ZM12.0999 5.25C8.37985 5.25 5.34985 8.28 5.34985 12C5.34985 15.72 8.37985 18.75 12.0999 18.75C15.8199 18.75 18.8499 15.72 18.8499 12C18.8499 8.28 15.8199 5.25 12.0999 5.25Z" fill="#84898F"/>
<path d="M12.0999 15.75C10.0299 15.75 8.34985 14.07 8.34985 12C8.34985 9.93 10.0299 8.25 12.0999 8.25C14.1699 8.25 15.8499 9.93 15.8499 12C15.8499 14.07 14.1699 15.75 12.0999 15.75ZM12.0999 9.75C10.8599 9.75 9.84985 10.76 9.84985 12C9.84985 13.24 10.8599 14.25 12.0999 14.25C13.3399 14.25 14.3499 13.24 14.3499 12C14.3499 10.76 13.3399 9.75 12.0999 9.75Z" fill="#84898F"/>
<path d="M12.0999 4.75C11.6899 4.75 11.3499 4.41 11.3499 4V2C11.3499 1.59 11.6899 1.25 12.0999 1.25C12.5099 1.25 12.8499 1.59 12.8499 2V4C12.8499 4.41 12.5099 4.75 12.0999 4.75Z" fill="#84898F"/>
<path d="M4.09985 12.75H2.09985C1.68985 12.75 1.34985 12.41 1.34985 12C1.34985 11.59 1.68985 11.25 2.09985 11.25H4.09985C4.50985 11.25 4.84985 11.59 4.84985 12C4.84985 12.41 4.50985 12.75 4.09985 12.75Z" fill="#84898F"/>
<path d="M12.0999 22.75C11.6899 22.75 11.3499 22.41 11.3499 22V20C11.3499 19.59 11.6899 19.25 12.0999 19.25C12.5099 19.25 12.8499 19.59 12.8499 20V22C12.8499 22.41 12.5099 22.75 12.0999 22.75Z" fill="#84898F"/>
<path d="M22.0999 12.75H20.0999C19.6899 12.75 19.3499 12.41 19.3499 12C19.3499 11.59 19.6899 11.25 20.0999 11.25H22.0999C22.5099 11.25 22.8499 11.59 22.8499 12C22.8499 12.41 22.5099 12.75 22.0999 12.75Z" fill="#84898F"/>
</svg>
