<svg width="22" height="22" viewBox="0 0 22 22" fill="none" xmlns="http://www.w3.org/2000/svg">
<path d="M16.3075 20.8542H5.69251C3.18084 20.8542 1.14584 18.81 1.14584 16.2984V9.50585C1.14584 8.25918 1.91584 6.69168 2.90584 5.92168L7.84668 2.07168C9.33168 0.916684 11.7058 0.861684 13.2458 1.94335L18.9108 5.91252C20.0017 6.67335 20.8542 8.30502 20.8542 9.63418V16.3075C20.8542 18.81 18.8192 20.8542 16.3075 20.8542ZM8.69001 3.15335L3.74918 7.00335C3.09834 7.51668 2.52084 8.68085 2.52084 9.50585V16.2984C2.52084 18.0492 3.94168 19.4792 5.69251 19.4792H16.3075C18.0583 19.4792 19.4792 18.0584 19.4792 16.3075V9.63418C19.4792 8.75418 18.8467 7.53502 18.1225 7.04002L12.4575 3.07085C11.4125 2.33752 9.68918 2.37418 8.69001 3.15335Z" fill="#226CD7"/>
<path d="M11 17.1875C10.6242 17.1875 10.3125 16.8758 10.3125 16.5V13.75C10.3125 13.3742 10.6242 13.0625 11 13.0625C11.3758 13.0625 11.6875 13.3742 11.6875 13.75V16.5C11.6875 16.8758 11.3758 17.1875 11 17.1875Z" fill="#226CD7"/>
</svg>
