<svg width="15" height="16" viewBox="0 0 15 16" fill="none" xmlns="http://www.w3.org/2000/svg">
<path d="M7.65417 9.411C6.36652 9.411 5.31464 8.32744 5.31464 6.98709C5.31464 5.64674 6.36652 4.56944 7.65417 4.56944C8.94182 4.56944 9.9937 5.653 9.9937 6.99335C9.9937 8.3337 8.94182 9.411 7.65417 9.411ZM7.65417 5.50894C6.86828 5.50894 6.22143 6.17286 6.22143 6.99335C6.22143 7.81385 6.86223 8.47776 7.65417 8.47776C8.4461 8.47776 9.0869 7.81385 9.0869 6.99335C9.0869 6.17286 8.44006 5.50894 7.65417 5.50894Z" fill="#292D32"/>
<path d="M7.654 14.7912C6.75929 14.7912 5.85854 14.4405 5.15729 13.7453C3.37392 11.9665 1.40316 9.12919 2.14673 5.75326C2.81776 2.69049 5.3991 1.31882 7.654 1.31882C7.654 1.31882 7.654 1.31882 7.66004 1.31882C9.91494 1.31882 12.4963 2.69049 13.1673 5.75952C13.9048 9.13546 11.9341 11.9665 10.1507 13.7453C9.44945 14.4405 8.5487 14.7912 7.654 14.7912ZM7.654 2.25832C5.89481 2.25832 3.63387 3.22913 3.03539 5.95995C2.38249 8.90998 4.1719 11.4529 5.79204 13.0626C6.83788 14.1085 8.47616 14.1085 9.52199 13.0626C11.1361 11.4529 12.9255 8.90998 12.2847 5.95995C11.6802 3.22913 9.41318 2.25832 7.654 2.25832Z" fill="#292D32"/>
</svg>
