<svg width="22" height="22" viewBox="0 0 22 22" fill="none" xmlns="http://www.w3.org/2000/svg">
<path d="M11.0184 18.8191C8.88258 18.8191 6.74675 18.4799 4.72092 17.8016C3.95092 17.5357 3.36425 16.9949 3.10758 16.2891C2.84175 15.5832 2.93342 14.8041 3.35508 14.1074L4.40925 12.3566C4.62925 11.9899 4.83092 11.2566 4.83092 10.8257V8.17657C4.83092 4.76657 7.60842 1.98907 11.0184 1.98907C14.4284 1.98907 17.2059 4.76657 17.2059 8.17657V10.8257C17.2059 11.2474 17.4076 11.9899 17.6276 12.3657L18.6726 14.1074C19.0668 14.7674 19.1401 15.5649 18.8743 16.2891C18.6084 17.0132 18.0309 17.5632 17.3068 17.8016C15.2901 18.4799 13.1543 18.8191 11.0184 18.8191ZM11.0184 3.36407C8.36925 3.36407 6.20592 5.51824 6.20592 8.17657V10.8257C6.20592 11.4949 5.93092 12.4849 5.59175 13.0624L4.53758 14.8132C4.33592 15.1524 4.28092 15.5099 4.40008 15.8124C4.51008 16.1241 4.78508 16.3624 5.16092 16.4907C8.99258 17.7741 13.0534 17.7741 16.8851 16.4907C17.2151 16.3807 17.4718 16.1332 17.5909 15.8032C17.7101 15.4732 17.6826 15.1157 17.4993 14.8132L16.4451 13.0624C16.0968 12.4666 15.8309 11.4857 15.8309 10.8166V8.17657C15.8309 5.51824 13.6768 3.36407 11.0184 3.36407Z" fill="#8E8EA4"/>
<path d="M12.7233 3.61179C12.6591 3.61179 12.595 3.60262 12.5308 3.58429C12.265 3.51095 12.0083 3.45595 11.7608 3.41929C10.9816 3.31845 10.23 3.37345 9.52413 3.58429C9.26746 3.66679 8.99246 3.58429 8.8183 3.39179C8.64413 3.19929 8.58913 2.92429 8.68996 2.67679C9.0658 1.71429 9.98246 1.08179 11.0275 1.08179C12.0725 1.08179 12.9891 1.70512 13.365 2.67679C13.4566 2.92429 13.4108 3.19929 13.2366 3.39179C13.0991 3.53845 12.9066 3.61179 12.7233 3.61179Z" fill="#8E8EA4"/>
<path d="M11.0184 20.9092C10.1109 20.9092 9.23093 20.5426 8.58927 19.9009C7.9476 19.2592 7.58093 18.3792 7.58093 17.4717H8.95593C8.95593 18.0126 9.17593 18.5442 9.56093 18.9292C9.94593 19.3142 10.4776 19.5342 11.0184 19.5342C12.1551 19.5342 13.0809 18.6084 13.0809 17.4717H14.4559C14.4559 19.3692 12.9159 20.9092 11.0184 20.9092Z" fill="#8E8EA4"/>
</svg>
