<svg width="22" height="22" viewBox="0 0 22 22" fill="none" xmlns="http://www.w3.org/2000/svg">
<path d="M9.18489 4.78493C9.02906 4.78493 8.88239 4.73911 8.75406 4.62911C8.46073 4.39078 8.4149 3.95996 8.64406 3.66663L10.4591 1.40249C10.6974 1.10915 11.1282 1.06327 11.4216 1.29243C11.7149 1.53077 11.7607 1.96165 11.5316 2.25498L9.71658 4.51912C9.58824 4.69329 9.38656 4.78493 9.18489 4.78493Z" fill="#666A6F"/>
<path d="M10.9998 20.8542C6.13227 20.8542 2.16309 16.8941 2.16309 12.0175C2.16309 10.12 2.77726 8.29581 3.9506 6.73747C4.17976 6.43497 4.61059 6.37084 4.91309 6.60001C5.21559 6.82917 5.27977 7.25999 5.05061 7.56249C4.06061 8.88249 3.53809 10.4225 3.53809 12.0175C3.53809 16.1333 6.88393 19.4792 10.9998 19.4792C15.1156 19.4792 18.4614 16.1333 18.4614 12.0175C18.4614 7.90165 15.1156 4.5558 10.9998 4.5558C10.4681 4.5558 9.92727 4.62 9.3406 4.7575C8.97393 4.84 8.59811 4.61083 8.51561 4.24417C8.43311 3.8775 8.66227 3.50164 9.02894 3.41914C9.71644 3.26331 10.3673 3.1808 10.9998 3.1808C15.8673 3.1808 19.8364 7.14081 19.8364 12.0175C19.8364 16.8941 15.8673 20.8542 10.9998 20.8542Z" fill="#666A6F"/>
</svg>
