<svg width="34" height="34" viewBox="0 0 34 34" fill="none" xmlns="http://www.w3.org/2000/svg">
<path d="M11.4171 2.88989H8.35709C5.36792 2.88989 2.93127 5.32656 2.93127 8.31573V11.2482C2.93127 11.8291 3.41294 12.3107 3.99377 12.3107C4.57461 12.3107 5.05627 11.8291 5.05627 11.2482V8.31573C5.05627 6.48823 6.54376 5.01489 8.35709 5.01489H11.4171C11.9979 5.01489 12.4796 4.53323 12.4796 3.95239C12.4796 3.37156 12.0121 2.88989 11.4171 2.88989Z" fill="white"/>
<path d="M25.6267 2.88983H22.5667C21.9858 2.88983 21.5042 3.3715 21.5042 3.95233C21.5042 4.53317 21.9858 5.01483 22.5667 5.01483H25.6267C27.4542 5.01483 28.9275 6.50233 28.9275 8.31567V11.2482C28.9275 11.829 29.4092 12.3107 29.99 12.3107C30.5708 12.3107 31.0525 11.829 31.0525 11.2482V8.31567C31.0667 5.3265 28.63 2.88983 25.6267 2.88983Z" fill="white"/>
<path d="M11.4171 28.9854H8.35709C6.52959 28.9854 5.05627 27.4978 5.05627 25.6845V22.752C5.05627 22.1712 4.57461 21.6895 3.99377 21.6895C3.41294 21.6895 2.93127 22.1712 2.93127 22.752V25.6845C2.93127 28.6737 5.36792 31.1104 8.35709 31.1104H11.4171C11.9979 31.1104 12.4796 30.6429 12.4796 30.0479C12.4796 29.467 12.0121 28.9854 11.4171 28.9854Z" fill="white"/>
<path d="M30.004 21.6895C29.4232 21.6895 28.9415 22.1712 28.9415 22.752V25.6845C28.9415 27.512 27.454 28.9854 25.6407 28.9854H22.5807C21.9999 28.9854 21.5182 29.467 21.5182 30.0479C21.5182 30.6287 21.9999 31.1104 22.5807 31.1104H25.6407C28.6299 31.1104 31.0665 28.6737 31.0665 25.6845V22.752C31.0665 22.157 30.5848 21.6895 30.004 21.6895Z" fill="white"/>
<path d="M24.1763 8.22603C25.5003 5.51342 24.3497 20.8473 20.4885 23.4576C16.6274 26.068 12.4872 24.1593 13.3146 22.2285C13.3146 22.2285 22.8522 10.9386 24.1763 8.22603Z" fill="white"/>
<path d="M11.0306 14.236C12.7458 12.2354 23.8904 6.22578 23.8904 7.65489C23.8904 7.65489 15.8871 16.8002 12.7429 21.6596C12.4566 22.1022 11.9152 23.9938 11.5872 25.2013C11.4745 25.6161 10.9308 25.722 10.673 25.3781C10.5374 25.1972 10.4884 24.9658 10.539 24.7455L11.3138 21.3748C8.74124 19.0879 9.31553 16.2367 11.0306 14.236Z" fill="white"/>
</svg>
