<svg width="18" height="18" viewBox="0 0 18 18" fill="none" xmlns="http://www.w3.org/2000/svg">
<path d="M8.64591 15.9063C4.64383 15.9063 1.3855 12.6479 1.3855 8.64584C1.3855 4.64375 4.64383 1.38542 8.64591 1.38542C12.648 1.38542 15.9063 4.64375 15.9063 8.64584C15.9063 12.6479 12.648 15.9063 8.64591 15.9063ZM8.64591 2.44792C5.22466 2.44792 2.448 5.23167 2.448 8.64584C2.448 12.06 5.22466 14.8438 8.64591 14.8438C12.0672 14.8438 14.8438 12.06 14.8438 8.64584C14.8438 5.23167 12.0672 2.44792 8.64591 2.44792Z" fill="#292D32"/>
<path d="M16.0834 16.6146C15.9488 16.6146 15.8142 16.565 15.7079 16.4588L14.2913 15.0421C14.0859 14.8367 14.0859 14.4967 14.2913 14.2913C14.4967 14.0858 14.8367 14.0858 15.0421 14.2913L16.4588 15.7079C16.6642 15.9133 16.6642 16.2533 16.4588 16.4588C16.3525 16.565 16.2179 16.6146 16.0834 16.6146Z" fill="#292D32"/>
</svg>
