<svg width="22" height="22" viewBox="0 0 22 22" fill="none" xmlns="http://www.w3.org/2000/svg">
<path d="M11 14.4375C9.1025 14.4375 7.5625 12.8975 7.5625 11C7.5625 9.1025 9.1025 7.5625 11 7.5625C12.8975 7.5625 14.4375 9.1025 14.4375 11C14.4375 12.8975 12.8975 14.4375 11 14.4375ZM11 8.9375C9.86333 8.9375 8.9375 9.86333 8.9375 11C8.9375 12.1367 9.86333 13.0625 11 13.0625C12.1367 13.0625 13.0625 12.1367 13.0625 11C13.0625 9.86333 12.1367 8.9375 11 8.9375Z" fill="#8E8EA4"/>
<path d="M13.9425 20.3408C13.75 20.3408 13.5575 20.3133 13.365 20.2675C12.7966 20.1117 12.32 19.7542 12.0175 19.25L11.9075 19.0667C11.3666 18.1317 10.6241 18.1317 10.0833 19.0667L9.98248 19.2408C9.67998 19.7542 9.20331 20.1208 8.63498 20.2675C8.05748 20.4233 7.46165 20.3408 6.95748 20.0383L5.38081 19.1308C4.82165 18.81 4.41831 18.2875 4.24415 17.655C4.07915 17.0225 4.16165 16.3717 4.48248 15.8125C4.74831 15.345 4.82165 14.9233 4.66581 14.6575C4.50998 14.3917 4.11581 14.2358 3.57498 14.2358C2.23665 14.2358 1.14581 13.145 1.14581 11.8067V10.1933C1.14581 8.855 2.23665 7.76416 3.57498 7.76416C4.11581 7.76416 4.50998 7.60833 4.66581 7.3425C4.82165 7.07666 4.75748 6.655 4.48248 6.1875C4.16165 5.62833 4.07915 4.96833 4.24415 4.345C4.40915 3.7125 4.81248 3.19 5.38081 2.86916L6.96665 1.96166C8.00248 1.3475 9.36831 1.705 9.99164 2.75916L10.1016 2.9425C10.6425 3.8775 11.385 3.8775 11.9258 2.9425L12.0266 2.76833C12.65 1.705 14.0158 1.3475 15.0608 1.97083L16.6375 2.87833C17.1966 3.19916 17.6 3.72166 17.7741 4.35416C17.9391 4.98666 17.8566 5.6375 17.5358 6.19666C17.27 6.66416 17.1966 7.08583 17.3525 7.35166C17.5083 7.6175 17.9025 7.77333 18.4433 7.77333C19.7816 7.77333 20.8725 8.86416 20.8725 10.2025V11.8158C20.8725 13.1542 19.7816 14.245 18.4433 14.245C17.9025 14.245 17.5083 14.4008 17.3525 14.6667C17.1966 14.9325 17.2608 15.3542 17.5358 15.8217C17.8566 16.3808 17.9483 17.0408 17.7741 17.6642C17.6091 18.2967 17.2058 18.8192 16.6375 19.14L15.0516 20.0475C14.7033 20.24 14.3275 20.3408 13.9425 20.3408ZM11 16.9492C11.8158 16.9492 12.5766 17.4625 13.0991 18.37L13.2 18.5442C13.31 18.7367 13.4933 18.8742 13.7133 18.9292C13.9333 18.9842 14.1533 18.9567 14.3366 18.8467L15.9225 17.93C16.1608 17.7925 16.3441 17.5633 16.4175 17.2883C16.4908 17.0133 16.4541 16.7292 16.3166 16.4908C15.7941 15.5925 15.73 14.6667 16.1333 13.9608C16.5366 13.255 17.3708 12.8517 18.4158 12.8517C19.0025 12.8517 19.47 12.3842 19.47 11.7975V10.1842C19.47 9.60666 19.0025 9.13 18.4158 9.13C17.3708 9.13 16.5366 8.72666 16.1333 8.02083C15.73 7.315 15.7941 6.38916 16.3166 5.49083C16.4541 5.2525 16.4908 4.96833 16.4175 4.69333C16.3441 4.41833 16.17 4.19833 15.9316 4.05166L14.3458 3.14416C13.9516 2.90583 13.4291 3.04333 13.1908 3.44666L13.09 3.62083C12.5675 4.52833 11.8066 5.04166 10.9908 5.04166C10.175 5.04166 9.41415 4.52833 8.89165 3.62083L8.79081 3.4375C8.56165 3.0525 8.04831 2.915 7.65415 3.14416L6.06831 4.06083C5.82998 4.19833 5.64665 4.4275 5.57331 4.7025C5.49998 4.9775 5.53665 5.26166 5.67415 5.5C6.19665 6.39833 6.26081 7.32416 5.85748 8.03C5.45415 8.73583 4.61998 9.13916 3.57498 9.13916C2.98831 9.13916 2.52081 9.60666 2.52081 10.1933V11.8067C2.52081 12.3842 2.98831 12.8608 3.57498 12.8608C4.61998 12.8608 5.45415 13.2642 5.85748 13.97C6.26081 14.6758 6.19665 15.6017 5.67415 16.5C5.53665 16.7383 5.49998 17.0225 5.57331 17.2975C5.64665 17.5725 5.82081 17.7925 6.05915 17.9392L7.64498 18.8467C7.83748 18.9658 8.06665 18.9933 8.27748 18.9383C8.49748 18.8833 8.68081 18.7367 8.79998 18.5442L8.90081 18.37C9.42331 17.4717 10.1841 16.9492 11 16.9492Z" fill="#8E8EA4"/>
</svg>
