<svg width="20" height="20" viewBox="0 0 20 20" fill="none" xmlns="http://www.w3.org/2000/svg">
<path d="M1.48966 15.5417C1.48966 15.2171 1.75883 14.9479 2.08341 14.9479L10.7917 14.9479C11.1163 14.9479 11.3855 15.2171 11.3855 15.5417C11.3855 15.8663 11.1163 16.1354 10.7917 16.1354H2.08341C1.75883 16.1354 1.48966 15.8663 1.48966 15.5417Z" fill="#292D32"/>
<path d="M13.3647 15.5417C13.3647 15.2171 13.6338 14.9479 13.9584 14.9479H17.9167C18.2413 14.9479 18.5105 15.2171 18.5105 15.5417C18.5105 15.8663 18.2413 16.1354 17.9167 16.1354H13.9584C13.6338 16.1354 13.3647 15.8663 13.3647 15.5417Z" fill="#292D32"/>
<path d="M1.48967 10C1.48967 9.67542 1.75883 9.40625 2.08342 9.40625H6.04175C6.36633 9.40625 6.6355 9.67542 6.6355 10C6.6355 10.3246 6.36633 10.5938 6.04175 10.5938H2.08342C1.75883 10.5938 1.48967 10.3246 1.48967 10Z" fill="#292D32"/>
<path d="M8.61466 10C8.61466 9.67542 8.88383 9.40625 9.20841 9.40625L17.9167 9.40625C18.2413 9.40625 18.5105 9.67542 18.5105 10C18.5105 10.3246 18.2413 10.5938 17.9167 10.5938L9.20841 10.5938C8.88383 10.5938 8.61466 10.3246 8.61466 10Z" fill="#292D32"/>
<path d="M1.48966 4.45833C1.48966 4.13374 1.75883 3.86458 2.08341 3.86458L10.7917 3.86458C11.1163 3.86458 11.3855 4.13374 11.3855 4.45833C11.3855 4.78291 11.1163 5.05208 10.7917 5.05208L2.08341 5.05208C1.75883 5.05208 1.48966 4.78291 1.48966 4.45833Z" fill="#292D32"/>
<path d="M13.3647 4.45833C13.3647 4.13374 13.6338 3.86458 13.9584 3.86458L17.9167 3.86458C18.2413 3.86458 18.5105 4.13374 18.5105 4.45833C18.5105 4.78291 18.2413 5.05208 17.9167 5.05208L13.9584 5.05208C13.6338 5.05208 13.3647 4.78291 13.3647 4.45833Z" fill="#292D32"/>
<path d="M10.198 6.04167V2.875C10.198 2.55042 10.4672 2.28125 10.7917 2.28125C11.1163 2.28125 11.3855 2.55042 11.3855 2.875V6.04167C11.3855 6.36625 11.1163 6.63542 10.7917 6.63542C10.4672 6.63542 10.198 6.36625 10.198 6.04167Z" fill="#292D32"/>
<path d="M10.198 17.125V13.9583C10.198 13.6337 10.4672 13.3646 10.7917 13.3646C11.1163 13.3646 11.3855 13.6337 11.3855 13.9583V17.125C11.3855 17.4496 11.1163 17.7187 10.7917 17.7187C10.4672 17.7187 10.198 17.4496 10.198 17.125Z" fill="#292D32"/>
<path d="M8.6145 11.5833V8.41667C8.6145 8.09209 8.88367 7.82292 9.20825 7.82292C9.53284 7.82292 9.802 8.09209 9.802 8.41667V11.5833C9.802 11.9079 9.53284 12.1771 9.20825 12.1771C8.88367 12.1771 8.6145 11.9079 8.6145 11.5833Z" fill="#292D32"/>
</svg>
