<svg width="25" height="24" viewBox="0 0 25 24" fill="none" xmlns="http://www.w3.org/2000/svg">
<path d="M12.0999 15.75C10.0299 15.75 8.34985 14.07 8.34985 12C8.34985 9.93 10.0299 8.25 12.0999 8.25C14.1699 8.25 15.8499 9.93 15.8499 12C15.8499 14.07 14.1699 15.75 12.0999 15.75ZM12.0999 9.75C10.8599 9.75 9.84985 10.76 9.84985 12C9.84985 13.24 10.8599 14.25 12.0999 14.25C13.3399 14.25 14.3499 13.24 14.3499 12C14.3499 10.76 13.3399 9.75 12.0999 9.75Z" fill="#84898F"/>
<path d="M15.3099 22.19C15.0999 22.19 14.8899 22.16 14.6799 22.11C14.0599 21.94 13.5399 21.55 13.2099 21L13.0899 20.8C12.4999 19.78 11.6899 19.78 11.0999 20.8L10.9899 20.99C10.6599 21.55 10.1399 21.95 9.51985 22.11C8.88985 22.28 8.23985 22.19 7.68985 21.86L5.96985 20.87C5.35985 20.52 4.91985 19.95 4.72985 19.26C4.54985 18.57 4.63985 17.86 4.98985 17.25C5.27985 16.74 5.35985 16.28 5.18985 15.99C5.01985 15.7 4.58985 15.53 3.99985 15.53C2.53985 15.53 1.34985 14.34 1.34985 12.88V11.12C1.34985 9.66 2.53985 8.47 3.99985 8.47C4.58985 8.47 5.01985 8.3 5.18985 8.01C5.35985 7.72 5.28985 7.26 4.98985 6.75C4.63985 6.14 4.54985 5.42 4.72985 4.74C4.90985 4.05 5.34985 3.48 5.96985 3.13L7.69985 2.14C8.82985 1.47 10.3199 1.86 10.9999 3.01L11.1199 3.21C11.7099 4.23 12.5199 4.23 13.1099 3.21L13.2199 3.02C13.8999 1.86 15.3899 1.47 16.5299 2.15L18.2499 3.14C18.8599 3.49 19.2999 4.06 19.4899 4.75C19.6699 5.44 19.5799 6.15 19.2299 6.76C18.9399 7.27 18.8599 7.73 19.0299 8.02C19.1999 8.31 19.6299 8.48 20.2199 8.48C21.6799 8.48 22.8699 9.67 22.8699 11.13V12.89C22.8699 14.35 21.6799 15.54 20.2199 15.54C19.6299 15.54 19.1999 15.71 19.0299 16C18.8599 16.29 18.9299 16.75 19.2299 17.26C19.5799 17.87 19.6799 18.59 19.4899 19.27C19.3099 19.96 18.8699 20.53 18.2499 20.88L16.5199 21.87C16.1399 22.08 15.7299 22.19 15.3099 22.19ZM12.0999 18.49C12.9899 18.49 13.8199 19.05 14.3899 20.04L14.4999 20.23C14.6199 20.44 14.8199 20.59 15.0599 20.65C15.2999 20.71 15.5399 20.68 15.7399 20.56L17.4699 19.56C17.7299 19.41 17.9299 19.16 18.0099 18.86C18.0899 18.56 18.0499 18.25 17.8999 17.99C17.3299 17.01 17.2599 16 17.6999 15.23C18.1399 14.46 19.0499 14.02 20.1899 14.02C20.8299 14.02 21.3399 13.51 21.3399 12.87V11.11C21.3399 10.48 20.8299 9.96 20.1899 9.96C19.0499 9.96 18.1399 9.52 17.6999 8.75C17.2599 7.98 17.3299 6.97 17.8999 5.99C18.0499 5.73 18.0899 5.42 18.0099 5.12C17.9299 4.82 17.7399 4.58 17.4799 4.42L15.7499 3.43C15.3199 3.17 14.7499 3.32 14.4899 3.76L14.3799 3.95C13.8099 4.94 12.9799 5.5 12.0899 5.5C11.1999 5.5 10.3699 4.94 9.79985 3.95L9.68985 3.75C9.43985 3.33 8.87985 3.18 8.44985 3.43L6.71985 4.43C6.45985 4.58 6.25985 4.83 6.17985 5.13C6.09985 5.43 6.13985 5.74 6.28985 6C6.85985 6.98 6.92985 7.99 6.48985 8.76C6.04985 9.53 5.13985 9.97 3.99985 9.97C3.35985 9.97 2.84985 10.48 2.84985 11.12V12.88C2.84985 13.51 3.35985 14.03 3.99985 14.03C5.13985 14.03 6.04985 14.47 6.48985 15.24C6.92985 16.01 6.85985 17.02 6.28985 18C6.13985 18.26 6.09985 18.57 6.17985 18.87C6.25985 19.17 6.44985 19.41 6.70985 19.57L8.43985 20.56C8.64985 20.69 8.89985 20.72 9.12985 20.66C9.36985 20.6 9.56985 20.44 9.69985 20.23L9.80985 20.04C10.3799 19.06 11.2099 18.49 12.0999 18.49Z" fill="#84898F"/>
</svg>
