<svg width="16" height="15" viewBox="0 0 16 15" fill="none" xmlns="http://www.w3.org/2000/svg">
<path d="M8.37085 13.2815H5.24585C2.9646 13.2815 1.6521 11.969 1.6521 9.68774V5.31274C1.6521 3.03149 2.9646 1.71899 5.24585 1.71899H11.4958C13.7771 1.71899 15.0896 3.03149 15.0896 5.31274V7.18774C15.0896 7.44399 14.8771 7.65649 14.6208 7.65649C14.3646 7.65649 14.1521 7.44399 14.1521 7.18774V5.31274C14.1521 3.52524 13.2833 2.65649 11.4958 2.65649H5.24585C3.45835 2.65649 2.5896 3.52524 2.5896 5.31274V9.68774C2.5896 11.4752 3.45835 12.344 5.24585 12.344H8.37085C8.6271 12.344 8.8396 12.5565 8.8396 12.8127C8.8396 13.069 8.6271 13.2815 8.37085 13.2815Z" fill="#292D32"/>
<path d="M8.37083 8.04397C7.84583 8.04397 7.31459 7.88147 6.90834 7.55022L4.95208 5.98772C4.75208 5.82522 4.71459 5.53147 4.87709 5.33147C5.03959 5.13147 5.33333 5.10023 5.53333 5.25648L7.48958 6.81898C7.96458 7.20023 8.77083 7.20023 9.24583 6.81898L11.2021 5.25648C11.4021 5.09398 11.6958 5.12522 11.8583 5.33147C12.0208 5.53147 11.9896 5.83147 11.7833 5.98772L9.82708 7.55022C9.42708 7.88147 8.89583 8.04397 8.37083 8.04397Z" fill="#292D32"/>
<path d="M10.7583 13.6127C10.5208 13.6127 10.2958 13.5252 10.1333 13.3627C9.93957 13.169 9.85207 12.8877 9.89582 12.594L10.0146 11.7502C10.0458 11.5315 10.1771 11.269 10.3333 11.1127L12.5458 8.90023C12.8458 8.60023 13.1396 8.44398 13.4583 8.41273C13.8458 8.37523 14.2333 8.53773 14.5958 8.90023C14.9583 9.26273 15.1208 9.64398 15.0833 10.0377C15.0521 10.3502 14.8896 10.6502 14.5958 10.9502L12.3833 13.1627C12.2271 13.319 11.9646 13.4502 11.7458 13.4815L10.9021 13.6002C10.8521 13.6065 10.8083 13.6127 10.7583 13.6127ZM13.5646 9.34399C13.5583 9.34399 13.5521 9.34399 13.5458 9.34399C13.4583 9.35024 13.3396 9.43148 13.2083 9.56273L10.9958 11.7752C10.9771 11.794 10.9458 11.8565 10.9458 11.8815L10.8333 12.6627L11.6146 12.5502C11.6396 12.544 11.7021 12.5127 11.7208 12.494L13.9333 10.2815C14.0646 10.144 14.1458 10.0315 14.1521 9.94399C14.1646 9.81899 14.0396 9.66898 13.9333 9.56273C13.8333 9.46273 13.6896 9.34399 13.5646 9.34399Z" fill="#292D32"/>
<path d="M13.946 11.4065C13.9022 11.4065 13.8585 11.4002 13.821 11.3877C12.996 11.1565 12.3397 10.5002 12.1085 9.67521C12.0397 9.42521 12.1835 9.16894 12.4335 9.09394C12.6835 9.02519 12.9397 9.16895 13.0085 9.41896C13.1522 9.93146 13.5585 10.3377 14.071 10.4814C14.321 10.5502 14.4647 10.8127 14.396 11.0627C14.3397 11.269 14.1522 11.4065 13.946 11.4065Z" fill="#292D32"/>
</svg>
