<svg width="25" height="25" viewBox="0 0 25 25" fill="none" xmlns="http://www.w3.org/2000/svg">
<path d="M10.5 4.43607H11.75V9.18607C11.75 9.59607 12.09 9.93607 12.5 9.93607C12.91 9.93607 13.25 9.59607 13.25 9.18607V4.43607H14.5C14.91 4.43607 15.25 4.09607 15.25 3.68607C15.25 3.27607 14.91 2.93607 14.5 2.93607H10.5C10.09 2.93607 9.75 3.27607 9.75 3.68607C9.75 4.09607 10.09 4.43607 10.5 4.43607Z" fill="#226CD7"/>
<path d="M14.5 20.9361H13.25V16.1861C13.25 15.7761 12.91 15.4361 12.5 15.4361C12.09 15.4361 11.75 15.7761 11.75 16.1861V20.9361H10.5C10.09 20.9361 9.75 21.2761 9.75 21.6861C9.75 22.0961 10.09 22.4361 10.5 22.4361H14.5C14.91 22.4361 15.25 22.0961 15.25 21.6861C15.25 21.2761 14.91 20.9361 14.5 20.9361Z" fill="#226CD7"/>
<path d="M3.33 10.5661C3.45 10.6361 3.58 10.6661 3.7 10.6661C3.96 10.6661 4.21 10.5361 4.35 10.2861L4.98 9.20606L9.1 11.5861C9.21 11.6561 9.34 11.6861 9.47 11.6861C9.73 11.6861 9.98 11.5561 10.12 11.3061C10.33 10.9561 10.2 10.4961 9.85 10.2861L5.73 7.90606L6.35 6.82606C6.56 6.46606 6.43 6.00606 6.08 5.80606C5.72 5.59606 5.26 5.71606 5.06 6.07606L3.06 9.53606C2.85 9.90606 2.97 10.3561 3.33 10.5661Z" fill="#226CD7"/>
<path d="M21.67 14.8061C21.31 14.5961 20.85 14.7161 20.65 15.0761L20.02 16.1561L15.9 13.7861C15.54 13.5761 15.08 13.7061 14.88 14.0561C14.67 14.4161 14.8 14.8761 15.15 15.0761L19.26 17.4561L18.64 18.5361C18.43 18.8961 18.56 19.3561 18.91 19.5561C19.03 19.6261 19.16 19.6561 19.28 19.6561C19.54 19.6561 19.79 19.5261 19.93 19.2761L21.93 15.8161C22.15 15.4661 22.03 15.0161 21.67 14.8061Z" fill="#226CD7"/>
<path d="M19.27 7.90607L15.15 10.2861C14.79 10.4961 14.67 10.9561 14.88 11.3061C15.02 11.5461 15.27 11.6861 15.53 11.6861C15.66 11.6861 15.79 11.6561 15.9 11.5861L20.01 9.20607L20.64 10.2861C20.78 10.5261 21.03 10.6661 21.29 10.6661C21.42 10.6661 21.55 10.6361 21.66 10.5661C22.02 10.3561 22.14 9.89607 21.93 9.54607L19.93 6.08607C19.72 5.72607 19.26 5.60607 18.91 5.81607C18.55 6.02607 18.43 6.48607 18.64 6.83607L19.27 7.90607Z" fill="#226CD7"/>
<path d="M5.73 17.4661L9.84 15.0861C10.2 14.8761 10.32 14.4161 10.11 14.0661C9.9 13.7061 9.44 13.5861 9.09 13.7961L4.98 16.1761L4.35 15.0961C4.14 14.7361 3.68 14.6161 3.33 14.8261C2.97 15.0361 2.85 15.4961 3.06 15.8461L5.06 19.3061C5.2 19.5461 5.45 19.6861 5.71 19.6861C5.84 19.6861 5.97 19.6561 6.08 19.5861C6.44 19.3761 6.56 18.9161 6.35 18.5661L5.73 17.4661Z" fill="#226CD7"/>
<path d="M16 12.6861C16 13.3261 15.83 13.9161 15.53 14.4361C14.92 15.4861 13.79 16.1861 12.5 16.1861C11.21 16.1861 10.08 15.4861 9.47 14.4361C9.17 13.9161 9 13.3261 9 12.6861C9 12.0461 9.17 11.4561 9.47 10.9361C10.08 9.88607 11.21 9.18607 12.5 9.18607C13.79 9.18607 14.92 9.88607 15.53 10.9361C15.83 11.4561 16 12.0461 16 12.6861Z" fill="#226CD7"/>
</svg>
