<svg width="25" height="24" viewBox="0 0 25 24" fill="none" xmlns="http://www.w3.org/2000/svg">
<path d="M12.0999 13.75C11.6899 13.75 11.3499 13.41 11.3499 13V7.75C11.3499 7.34 11.6899 7 12.0999 7C12.5099 7 12.8499 7.34 12.8499 7.75V13C12.8499 13.41 12.5099 13.75 12.0999 13.75Z" fill="#226CD7"/>
<path d="M12.0999 17.25C11.8299 17.25 11.5798 17.15 11.3898 16.96C11.2998 16.86 11.2299 16.75 11.1699 16.63C11.1199 16.51 11.0999 16.38 11.0999 16.25C11.0999 15.99 11.2098 15.73 11.3898 15.54C11.7598 15.17 12.4399 15.17 12.8099 15.54C12.9899 15.73 13.0999 15.99 13.0999 16.25C13.0999 16.38 13.0698 16.51 13.0198 16.63C12.9698 16.75 12.8999 16.86 12.8099 16.96C12.6199 17.15 12.3699 17.25 12.0999 17.25Z" fill="#226CD7"/>
<path d="M12.1 22.75C11.43 22.75 10.75 22.58 10.15 22.23L4.21002 18.8C3.01002 18.1 2.26001 16.81 2.26001 15.42V8.57999C2.26001 7.18999 3.01002 5.89999 4.21002 5.19999L10.15 1.77C11.35 1.07 12.84 1.07 14.05 1.77L19.9901 5.19999C21.1901 5.89999 21.9401 7.18999 21.9401 8.57999V15.42C21.9401 16.81 21.1901 18.1 19.9901 18.8L14.05 22.23C13.45 22.58 12.77 22.75 12.1 22.75ZM12.1 2.74998C11.69 2.74998 11.27 2.85998 10.9 3.06998L4.96002 6.49998C4.22002 6.92998 3.76001 7.71999 3.76001 8.57999V15.42C3.76001 16.27 4.22002 17.07 4.96002 17.5L10.9 20.93C11.64 21.36 12.56 21.36 13.29 20.93L19.23 17.5C19.97 17.07 20.4301 16.28 20.4301 15.42V8.57999C20.4301 7.72999 19.97 6.92998 19.23 6.49998L13.29 3.06998C12.93 2.85998 12.51 2.74998 12.1 2.74998Z" fill="#226CD7"/>
</svg>
